<?xml version="1.0" encoding="utf-8"?>
<!-- Generator: Adobe Illustrator 16.0.0, SVG Export Plug-In . SVG Version: 6.00 Build 0)  -->
<!DOCTYPE svg PUBLIC "-//W3C//DTD SVG 1.1//EN" "http://www.w3.org/Graphics/SVG/1.1/DTD/svg11.dtd">
<svg version="1.1" id="Layer_1" xmlns="http://www.w3.org/2000/svg" xmlns:xlink="http://www.w3.org/1999/xlink" x="0px" y="0px"
	 width="132.762px" height="56.879px" viewBox="0 0 132.762 56.879" enable-background="new 0 0 132.762 56.879"
	 xml:space="preserve">
<g>
	<g>
		<g>
			<g id="SVGID_2_">
				<path fill="#FFFFFF" d="M42.035,49.361l3.868-5.351c1.649-2.205,2.385-2.723,5.832-2.723h13.359V9.521H17.02v31.766h13.357
					c3.449,0,4.186,0.518,5.839,2.729l3.863,5.346l-28.333,0.007c-1.547,0-2.806-1.259-2.806-2.806V4.25
					c0-1.549,1.259-2.809,2.806-2.809h58.621c1.548,0,2.807,1.26,2.807,2.809v42.312c0,1.548-1.259,2.807-2.807,2.807l0,0
					L42.035,49.361z"/>
				<path fill="#0DF7F7" d="M70.367,1.941c1.271,0,2.307,1.036,2.307,2.309v42.312c0,1.25-1.057,2.307-2.307,2.307l-27.354-0.007
					l3.285-4.546c1.581-2.114,2.174-2.528,5.437-2.528h12.859h1v-1V10.021v-1h-1H17.52h-1v1v30.766v1h1h12.857
					c3.265,0,3.859,0.414,5.429,2.516l3.295,4.559l-27.354,0.007c-1.271,0-2.306-1.034-2.306-2.306V4.25
					c0-1.273,1.034-2.309,2.306-2.309H70.367 M70.367,0.941H11.746c-1.815,0-3.306,1.49-3.306,3.309v42.312
					c0,1.812,1.489,3.306,3.306,3.306l29.311-0.007l-4.44-6.145c-1.789-2.395-2.694-2.93-6.239-2.93H17.52V10.021h47.074v30.767
					H51.735c-3.545,0-4.447,0.535-6.237,2.93l-4.44,6.144l29.311,0.008c1.812,0,3.307-1.493,3.307-3.307V4.25
					C73.674,2.432,72.18,0.941,70.367,0.941L70.367,0.941z"/>
			</g>
		</g>
	</g>
</g>
<g>
	<g>
		<path fill="#FFFFFF" stroke="#0DF7F7" stroke-miterlimit="10" d="M112.086,35.038c-1.033-1.521-13.087-19.268-13.087-19.268h6.306
			l9.458,14.895h0.118l9.46-14.895h6.304c0,0-11.933,17.623-13.088,19.268S113.119,36.559,112.086,35.038z"/>
	</g>
</g>
</svg>
