<?xml version="1.0" encoding="utf-8"?>
<!-- Generator: Adobe Illustrator 16.0.0, SVG Export Plug-In . SVG Version: 6.00 Build 0)  -->
<!DOCTYPE svg PUBLIC "-//W3C//DTD SVG 1.0//EN" "http://www.w3.org/TR/2001/REC-SVG-20010904/DTD/svg10.dtd" [
	<!ENTITY ns_flows "http://ns.adobe.com/Flows/1.0/">
	<!ENTITY ns_extend "http://ns.adobe.com/Extensibility/1.0/">
	<!ENTITY ns_ai "http://ns.adobe.com/AdobeIllustrator/10.0/">
	<!ENTITY ns_graphs "http://ns.adobe.com/Graphs/1.0/">
	<!ENTITY ns_vars "http://ns.adobe.com/Variables/1.0/">
	<!ENTITY ns_imrep "http://ns.adobe.com/ImageReplacement/1.0/">
	<!ENTITY ns_sfw "http://ns.adobe.com/SaveForWeb/1.0/">
	<!ENTITY ns_custom "http://ns.adobe.com/GenericCustomNamespace/1.0/">
	<!ENTITY ns_adobe_xpath "http://ns.adobe.com/XPath/1.0/">
]>
<svg version="1.0" id="Layer_1" xmlns:x="&ns_extend;" xmlns:i="&ns_ai;" xmlns:graph="&ns_graphs;"
	 xmlns="http://www.w3.org/2000/svg" xmlns:xlink="http://www.w3.org/1999/xlink" xmlns:a="http://ns.adobe.com/AdobeSVGViewerExtensions/3.0/"
	 x="0px" y="0px" width="100px" height="100px" viewBox="0 0 100 100" enable-background="new 0 0 100 100" xml:space="preserve">
<switch>
	<g i:extraneous="self">
		<path fill="#00B2EA" stroke="#00B2EA" stroke-width="4" stroke-miterlimit="10" stroke-opacity="0.4" d="M50.02,87.42v5.11
			c-6.07,0-11.65-1.14-16.76-3.41c-5.11-2.27-9.53-5.29-13.28-9.03c-5.2-5.2-8.81-11.31-10.82-18.34C8.06,57.82,7.49,53.9,7.47,50
			c-0.02-3.9,0.46-7.53,1.44-10.89c0.97-3.36,2.24-6.45,3.78-9.29c1.55-2.83,3.37-5.44,5.48-7.82l-7.2-7.15l18.06,0.19v17.78
			l-7.24-7.2c-1.83,2.11-3.41,4.41-4.76,6.92c-1.35,2.51-2.44,5.23-3.27,8.17c-0.84,2.94-1.24,6.11-1.21,9.52
			c0.03,3.4,0.54,6.82,1.53,10.26c1.7,6,4.87,11.33,9.52,15.97C30.91,83.77,39.72,87.42,50.02,87.42z M50.02,12.67v-5.2
			c6.04,0,11.6,1.14,16.69,3.41c5.09,2.27,9.51,5.29,13.25,9.03c5.23,5.23,8.85,11.34,10.86,18.34c1.11,3.93,1.68,7.85,1.69,11.75
			c0.02,3.9-0.47,7.53-1.46,10.89c-0.99,3.36-2.26,6.45-3.81,9.28c-1.55,2.83-3.37,5.44-5.48,7.82l7.24,7.24l-18.06-0.28V67.27
			l7.24,7.1c1.83-2.1,3.41-4.4,4.76-6.89c1.35-2.49,2.43-5.2,3.25-8.12c0.82-2.92,1.21-6.09,1.18-9.49
			c-0.03-3.4-0.54-6.82-1.53-10.26c-1.58-5.42-4.3-10.28-8.17-14.6c-3.87-4.32-8.37-7.5-13.51-9.54
			C59.51,13.6,54.79,12.67,50.02,12.67z"/>
	</g>
</switch>
</svg>
